<?xml version="1.0" encoding="utf-8"?>
<!-- Generator: Adobe Illustrator 23.0.1, SVG Export Plug-In . SVG Version: 6.00 Build 0)  -->
<svg version="1.1" id="Layer_1" xmlns="http://www.w3.org/2000/svg" xmlns:xlink="http://www.w3.org/1999/xlink" x="0px" y="0px"
	 viewBox="0 0 328.4 320.4" style="enable-background:new 0 0 328.4 320.4;" xml:space="preserve">
<style type="text/css">
	.st0{opacity:5.000000e-02;}
	.st1{fill:#23A9E1;}
</style>
<g class="st0">
	<path class="st1" d="M108.2,94.8l-95,99l29.5,29c0,0,59-14.8,63-24.5c0,0,24,14.3,70-45.3c0,0,20.3,11.7-58,90.7
		c0,0-62.3,56-47,62.7c0,0,111-13.7,191.7-33c0,0,31.7-74,11-137c-20.7-63-78.7-76.3-122-68c0,0-21-18.3-24-36.7
		c0,0-18.7,14.3-3,47.3l-6,6l-21-1.7L108.2,94.8z"/>
	<path class="st1" d="M179.4,29.3c-9-0.2-18,0.5-26.7,2.1l4.7,23.7c0,0,8.8-1.4,21.8-1L179.4,29.3z"/>
	<path class="st1" d="M218.4,35c-8.6-2.4-17.5-4-26.4-4.6l-1.4,24.1c0,0,8.8,0.8,21.4,4.5L218.4,35z"/>
	<path class="st1" d="M254.1,52.3c-7.5-4.9-15.5-9-23.9-12.3l-8.5,22.6c0,0,8.2,3.4,19.1,10.6L254.1,52.3z"/>
	<path class="st1" d="M284.6,78.6c-5.7-7-12-13.4-18.9-19l-15,18.9c0,0,6.8,5.8,14.9,16L284.6,78.6z"/>
	<path class="st1" d="M304.8,112.9c-3.4-8.3-7.6-16.3-12.6-23.7l-19.9,13.7c0,0,4.8,7.5,9.6,19.6L304.8,112.9z"/>
	<path class="st1" d="M314.6,151.2c-1.1-8.9-3-17.7-5.9-26.2l-22.8,8c0,0,2.6,8.5,4.1,21.5L314.6,151.2z"/>
	<path class="st1" d="M317.2,189.8c0.4-9,0-18-1.4-26.8l-23.8,4c0,0,1.2,8.8,0.4,21.9L317.2,189.8z"/>
	<path class="st1" d="M312.4,227.7c2.1-8.7,3.4-17.6,3.8-26.6l-24.1-0.6c0,0-0.8,10-2.3,23L312.4,227.7z"/>
	<polygon class="st1" points="286.7,235 279.7,269.3 305.2,263.8 310.4,239 	"/>
	<polygon class="st1" points="94.2,80.4 83.1,69.4 104.2,70.8 119.5,81.9 	"/>
	<polygon class="st1" points="70,56.9 79.8,66.8 99.5,68.3 86.7,58.6 	"/>
	<polygon class="st1" points="57.7,45.8 66.8,54.4 83,56.3 70,46.8 	"/>
	<polygon class="st1" points="48.7,37.1 55,43.4 65.8,44.3 57,37.6 	"/>
	<polygon class="st1" points="41.7,30.6 46.7,35.1 53.7,35.3 47.5,30.9 	"/>
	<polygon class="st1" points="31.5,20.9 38.7,27.9 42.8,27.9 33.3,20.8 	"/>
</g>
</svg>
