<svg id="Layer_1" data-name="Layer 1" xmlns="http://www.w3.org/2000/svg" viewBox="0 0 42.07 39.24"><defs><style>.cls-1{fill:#23a9e1;}</style></defs><title>Small_Icon</title><path class="cls-1" d="M13,10.51.52,23.53,4.4,27.34s7.75-1.95,8.28-3.22c0,0,3.16,1.88,9.2-6,0,0,2.68,1.53-7.62,11.92,0,0-8.2,7.36-6.18,8.24,0,0,14.59-1.8,25.2-4.34,0,0,4.16-9.73,1.45-18s-10.35-10-16-8.94c0,0-2.76-2.41-3.15-4.82,0,0-2.46,1.88-.4,6.22l-.78.79L11.58,9Z"/><path class="cls-1" d="M22.38,1.91a17.3,17.3,0,0,0-3.52.27l.61,3.12a16.6,16.6,0,0,1,2.87-.14Z"/><path class="cls-1" d="M27.5,2.66A17.17,17.17,0,0,0,24,2.05l-.19,3.16a16.84,16.84,0,0,1,2.82.59Z"/><path class="cls-1" d="M32.2,4.92a16.92,16.92,0,0,0-3.14-1.61L28,6.28a17,17,0,0,1,2.51,1.39Z"/><path class="cls-1" d="M36.21,8.39a17.31,17.31,0,0,0-2.49-2.5l-2,2.48a17.65,17.65,0,0,1,2,2.1Z"/><path class="cls-1" d="M38.86,12.9a17.52,17.52,0,0,0-1.65-3.12l-2.61,1.8a17.31,17.31,0,0,1,1.26,2.58Z"/><path class="cls-1" d="M40.15,17.93a17.58,17.58,0,0,0-.77-3.45l-3,1a16.58,16.58,0,0,1,.54,2.82Z"/><path class="cls-1" d="M40.5,23a18,18,0,0,0-.19-3.52L37.18,20a16.33,16.33,0,0,1,.06,2.88Z"/><path class="cls-1" d="M39.86,28a17.26,17.26,0,0,0,.49-3.49l-3.17-.08s-.11,1.31-.31,3Z"/><polygon class="cls-1" points="36.48 28.95 35.56 33.45 38.91 32.73 39.6 29.48 36.48 28.95"/><polygon class="cls-1" points="11.17 8.63 9.71 7.17 12.48 7.36 14.5 8.82 11.17 8.63"/><polygon class="cls-1" points="7.99 5.54 9.28 6.83 11.87 7.03 10.18 5.75 7.99 5.54"/><polygon class="cls-1" points="6.37 4.07 7.57 5.21 9.7 5.45 7.99 4.2 6.37 4.07"/><polygon class="cls-1" points="5.18 2.93 6.02 3.76 7.44 3.87 6.28 2.99 5.18 2.93"/><polygon class="cls-1" points="4.26 2.07 4.92 2.67 5.84 2.69 5.03 2.12 4.26 2.07"/><polygon class="cls-1" points="2.93 0.8 3.87 1.72 4.42 1.72 3.17 0.78 2.93 0.8"/></svg>